# xmcd CD database file
#
# Track frame offsets:
#	150
#	26126
#	45166
#	64904
#	87384
#	103440
#	116599
#	133851
#
# Disc length: 2138 seconds
#
# Revision: 1
# Processed by: cddbd v1.5PL3 Copyright (c) Steve Scherf et al.
# Submitted via: CDex 1.51
#
DISCID=70085808
DTITLE=Midnight Train - Nothing To Hide
DYEAR=2000
DGENRE=Blues
TTITLE0=Nothing To Hide
TTITLE1=Lost Your Good Thing
TTITLE2=9-5
TTITLE3=Rock Bottom
TTITLE4=Come Inside
TTITLE5=Nobody Loves Me Like My Baby
TTITLE6=Nippin'
TTITLE7=Dirty Pool
EXTD=YEAR: 2000
EXTT0=
EXTT1=
EXTT2=
EXTT3=
EXTT4=
EXTT5=
EXTT6=
EXTT7=
PLAYORDER=
